<?xml version="1.0" encoding="utf-8"?>
<!-- Generator: Adobe Illustrator 23.0.6, SVG Export Plug-In . SVG Version: 6.00 Build 0)  -->
<svg version="1.1" id="Layer_1" xmlns="http://www.w3.org/2000/svg" xmlns:xlink="http://www.w3.org/1999/xlink" x="0px" y="0px"
	 viewBox="0 0 106.8 27.5" style="enable-background:new 0 0 106.8 27.5;" xml:space="preserve">
<style type="text/css">
	.st0{fill-rule:evenodd;clip-rule:evenodd;fill:#231F20;}
	.st1{fill-rule:evenodd;clip-rule:evenodd;fill:#00ADEE;}
	.st2{fill:#231F20;}
</style>
<g>
	<g>
		<path class="st0" d="M19.2,12.7c0.5,0,0.9,0.2,1.2,0.6l0.2-0.2c-0.2-0.4-0.7-0.6-1.2-0.5c-0.1,0-0.1-0.1-0.1-0.2
			c0-0.1,0-0.1,0.1-0.2c0.3-0.2,0.6-0.4,0.9-0.5c0.3-0.2,0.4-0.5,0.4-0.8c0-0.1,0-0.2-0.1-0.2c-0.1,0-0.1-0.1-0.2-0.1
			c-0.6,0-1.2-0.2-1.6-0.5c-0.4-0.2-0.7-0.5-1-0.8c0,0-0.1,0-0.2,0c-0.1,0-0.1,0.1-0.1,0.1v0c0,0.4-0.1,0.8-0.1,1.2
			c0,0.2,0.1,0.3,0.3,0.4C18.5,11.4,19,12,19.2,12.7L19.2,12.7L19.2,12.7z M19.2,11.9c-0.3-0.5-0.8-0.9-1.4-1.2c0-0.3,0-0.6,0-1
			c0.7,0.7,1.6,1.1,2.6,1.1c0,0.3-0.3,0.6-0.6,0.7C19.6,11.7,19.4,11.8,19.2,11.9L19.2,11.9z"/>
		<path class="st0" d="M15.9,10.8c0.3,0,0.6-0.1,0.8-0.2c0.2-0.2,0.3-0.4,0.3-0.7c0-0.3-0.2-0.5-0.4-0.6c-0.2-0.1-0.5-0.1-0.8,0
			c-0.4,0.2-0.6,0.5-0.5,0.9C15.3,10.5,15.6,10.8,15.9,10.8L15.9,10.8L15.9,10.8z M15.5,9.8c0.1-0.2,0.2-0.3,0.4-0.3
			c0.2,0,0.4,0,0.5,0.2c0.1,0.1,0.2,0.3,0.1,0.5c-0.1,0.2-0.2,0.3-0.4,0.4c-0.2,0.1-0.4,0-0.6-0.2C15.5,10.2,15.4,10,15.5,9.8
			L15.5,9.8z"/>
		<path class="st0" d="M12.6,12.8h0.4l0,0l0-0.9c0-0.3,0.1-0.6,0.4-0.8c0.2-0.2,0.6-0.3,0.9-0.2l0,0c0-0.2,0-0.4-0.2-0.6
			c-0.1-0.4,0-0.7,0.3-1L15,9l1-0.9c0-0.1,0-0.2,0-0.2c-0.1-0.1-0.1-0.1-0.2-0.1c-0.2,0-0.3-0.1-0.4-0.2c-0.1-0.1-0.2-0.2-0.2-0.4
			c-0.1-0.1-0.2-0.1-0.4-0.1c-0.6,0.3-1.3,0.5-2,0.5c-0.1,0-0.2,0-0.3-0.1c-0.3-0.2-0.6-0.2-1-0.3c-0.5,0-0.9-0.2-1.3-0.4
			C9.4,6.5,8.6,6.3,7.8,6.2C6.3,6.4,5,7.3,4.4,8.7C4.3,9,4.1,9.2,3.9,9.5c0,0.1-0.1,0.1-0.1,0.2c0,0.2,0.2,0.3,0.3,0.3
			c0.2,0.1,0.3,0,0.5-0.1C5.3,9.5,6,9.2,6.7,8.8C6.8,8.8,6.9,8.7,7,8.8c0.1,0,0.2,0.1,0.3,0.2c0.1,0.2,0.2,0.4,0.3,0.7
			c0.1,0.5,0.1,0.9,0.1,1.4c0.2-0.1,0.5-0.2,0.8-0.1c0.3,0.1,0.5,0.2,0.6,0.4c0.4-0.3,1-0.5,1.5-0.4c0.5,0.1,1,0.3,1.4,0.7
			C12.2,12.1,12.5,12.4,12.6,12.8L12.6,12.8L12.6,12.8z M9.1,11.1c-0.3-0.4-0.8-0.5-1.2-0.4c0.1-0.4,0-0.8,0-1.2
			C7.8,9.3,7.6,9.1,7.5,8.8C7.4,8.7,7.3,8.6,7.1,8.5c-0.2,0-0.3,0-0.5,0C6,8.9,5.4,9.2,4.8,9.5C4.6,9.7,4.4,9.7,4.2,9.7
			c0.1-0.3,0.3-0.6,0.5-0.8c0.4-1,1.1-1.7,2.1-2.2C7.2,6.6,7.6,6.5,8,6.5C8.5,6.6,9.1,6.7,9.6,7c0.4,0.2,0.9,0.4,1.3,0.5
			c0.5,0,1,0.1,1.4,0.3c0.5,0.2,1,0.2,1.5,0c0.4-0.1,0.8-0.2,1.1-0.4C15,7.7,15.2,8,15.6,8.1l-1.4,1.2c-0.3,0.3-0.4,0.7-0.3,1.1
			c0,0.1,0.1,0.3,0.1,0.4c-0.3,0-0.6,0.1-0.8,0.3c-0.2,0.2-0.4,0.5-0.4,0.8l0,0.7v0c-0.2-0.7-0.7-1.3-1.5-1.6
			C10.6,10.7,9.8,10.8,9.1,11.1L9.1,11.1z"/>
		<path class="st0" d="M13.4,14.7c0,0.9,0,1.8,0,2.7c0.1,0.1,0.2,0.2,0.3,0.3c0.4,0.2,0.8,0.2,1.2-0.1c0.1-0.1,0.2-0.2,0.2-0.4v-1.8
			c0.4,0.5,0.9,0.7,1.5,0.7c0.6,0,1.2-0.3,1.5-0.7c0.2-0.2,0.3-0.5,0.4-0.8c0.5,0,0.9,0,1.4-0.1c0.2-0.1,0.3-0.3,0.3-0.5
			c0-0.1-0.1-0.3-0.2-0.4c-0.1-0.1-0.3-0.2-0.4-0.1h-1c0.1-0.6-0.1-1.1-0.5-1.6c-0.4-0.4-1-0.7-1.6-0.7c-0.5-0.1-1,0.1-1.4,0.3
			l-0.1,0.2c0,0,0,0,0,0c-0.1-0.4-0.5-0.6-0.9-0.6c-0.4,0-0.7,0.3-0.8,0.7v0v1.6h-1.2V13c0-0.4-0.2-0.8-0.5-1.1
			c-0.3-0.4-0.8-0.6-1.3-0.6c-0.5,0-1,0.2-1.3,0.6c0-0.2-0.2-0.4-0.3-0.5c-0.2-0.1-0.4-0.2-0.6-0.1c-0.2,0-0.4,0-0.5,0.1
			c-0.2,0.1-0.2,0.3-0.3,0.5v1.7c-0.4,0-0.9,0-1.3,0c-0.2,0-0.3,0.1-0.4,0.2c-0.1,0.2-0.2,0.4-0.1,0.6c0.1,0.2,0.3,0.3,0.6,0.3h1.2
			l0,0.7c0,0.2,0.1,0.4,0.3,0.5c0.2,0.1,0.4,0.2,0.6,0.2c0.2,0,0.4-0.1,0.6-0.2c0.2-0.1,0.3-0.3,0.3-0.5l0-2.8
			c0-0.2,0.1-0.3,0.3-0.4c0.2-0.1,0.4-0.1,0.5-0.1c0.2,0,0.3,0,0.4,0.1c0.1,0.1,0.2,0.2,0.2,0.4v2.8c0,0.1,0,0.1,0,0.2
			c0.1,0.2,0.2,0.4,0.5,0.5c0.2,0.1,0.5,0.1,0.7,0c0.3-0.1,0.5-0.3,0.6-0.6v-0.8h0H13.4L13.4,14.7L13.4,14.7z M15.1,12.2
			c0.4-0.3,1-0.3,1.4-0.1c0.2,0.2,0.3,0.4,0.3,0.6v1.9c0,0.2-0.1,0.3-0.2,0.4c-0.3,0.2-0.6,0.3-0.9,0.3c-0.2,0-0.3-0.1-0.4-0.2
			c-0.1-0.1-0.1-0.2-0.1-0.4V12.2L15.1,12.2z"/>
		<path class="st0" d="M0,13.7c0,3,1.3,5.8,3.5,7.9c2.2,2.1,5.3,3.3,8.4,3.3c3.2,0,6.2-1.2,8.4-3.3c2.2-2.1,3.5-5,3.5-7.9
			c0-3-1.3-5.8-3.5-7.9c-2.2-2.1-5.3-3.3-8.4-3.3c-3.2,0-6.2,1.2-8.4,3.3C1.3,7.9,0,10.8,0,13.7L0,13.7L0,13.7z M1.2,13.7
			c0-2.7,1.1-5.3,3.2-7.2c2-1.9,4.8-3,7.6-3c2.9,0,5.6,1.1,7.6,3c2,1.9,3.2,4.5,3.2,7.2c0,2.7-1.1,5.3-3.2,7.2c-2,1.9-4.8,3-7.6,3
			c-2.9,0-5.6-1.1-7.6-3C2.3,19,1.2,16.4,1.2,13.7L1.2,13.7z"/>
		<path class="st0" d="M9.3,15.5c-0.1,0.4-0.4,0.8-0.8,0.9c-0.4,0.1-0.9,0-1.2-0.3C7.2,16,7,15.9,6.9,15.9c-0.1,0-0.2,0.1-0.2,0.2
			c0,0.3,0.1,0.5,0.1,0.8C7.1,18,7.4,19,7.7,20.1c0.1,0.2,0.2,0.4,0.4,0.6c0.1-0.2,0.2-0.4,0.2-0.6c0-0.6,0-1.2-0.2-1.8
			c0,0,0.1-0.1,0.1-0.1c0,0,0.1,0,0.1,0l0.8,2.4c0.1,0.4,0.3,0.7,0.7,0.9c0.2,0.3,0.5,0.6,0.9,0.8c0.5,0.2,1,0.1,1.5-0.1
			c0.2,0.1,0.4,0.2,0.7,0.3c0.3,0.1,0.6,0.1,0.9-0.1c0.2-0.2,0.4-0.4,0.5-0.6c0-0.3,0.1-0.5,0.2-0.8c0.2-0.2,0.3-0.5,0.2-0.8
			c0,0-0.1-0.1-0.1-0.1c-0.4-0.1-0.8,0-1,0.3c-0.2,0.4-0.6,0.6-1.1,0.6c-0.5-0.2-0.7-0.6-0.7-1.1c0-0.2,0-0.4,0-0.6
			c0-0.1,0-0.2,0-0.3c0-0.2,0.2-0.4,0.4-0.5c0.2-0.1,0.4-0.2,0.6-0.2c0.2,0,0.4-0.2,0.5-0.4c0.1-0.2,0.1-0.4,0-0.6l0-2.1
			c-0.1-0.1-0.2-0.2-0.4-0.2c-0.2,0-0.3,0.1-0.3,0.3c-0.1,0.3-0.3,0.6-0.6,0.8c-0.3,0.2-0.7,0.2-1,0.1c-0.4-0.1-0.6-0.4-0.7-0.8
			v-2.7c0-0.2-0.1-0.3-0.3-0.4c-0.1-0.1-0.3,0-0.4,0c-0.1,0.1-0.2,0.2-0.2,0.4V15.5L9.3,15.5L9.3,15.5z M13,15.6v2
			c0.1,0.1,0.1,0.3,0,0.4c-0.1,0.1-0.2,0.2-0.3,0.3c-0.4,0.1-0.7,0.3-1,0.5c-0.2,0.3-0.3,0.7-0.3,1.1l0,0.3c0,0.3,0.2,0.6,0.4,0.8
			c0.2,0.2,0.6,0.4,0.9,0.4c0.3,0,0.6-0.1,0.8-0.4c0.1-0.3,0.5-0.5,0.9-0.5c-0.3,0.4-0.4,0.8-0.5,1.3c-0.1,0.4-0.5,0.6-0.9,0.6
			c-0.3-0.1-0.6-0.2-0.8-0.4c-0.4,0.2-0.8,0.3-1.3,0.2c-0.1,0-0.2-0.1-0.3-0.2c-0.2-0.2-0.4-0.4-0.5-0.6c-0.4-0.3-0.6-0.7-0.7-1.1
			l-0.8-2c0-0.1-0.1-0.2-0.2-0.3C8.4,18,8.3,18,8.2,18c-0.1,0-0.2,0.1-0.3,0.2c-0.1,0.1-0.1,0.2-0.1,0.3C8,18.9,8.1,19.3,8,19.8
			l0,0.3c-0.4-1-0.7-2.1-0.9-3.2c0-0.2-0.1-0.4,0-0.6c0.2,0.2,0.5,0.3,0.8,0.4c0.4,0,0.7-0.1,1-0.3c0.3-0.2,0.5-0.5,0.6-0.9v-2.6
			c0-0.1,0-0.1,0.1-0.2c0,0,0.1-0.1,0.2-0.1c0.1,0,0.1,0,0.1,0.1c0,0,0,0.1,0,0.2v2.6c0,0.3,0.1,0.6,0.3,0.8
			c0.4,0.3,0.8,0.4,1.3,0.4c0.5-0.1,0.9-0.4,1.1-0.8c0.1-0.1,0.1-0.2,0.2-0.3C12.8,15.5,12.9,15.5,13,15.6C13,15.5,13,15.5,13,15.6
			L13,15.6z"/>
		<path class="st0" d="M15.8,19.6C15.8,19.6,15.8,19.6,15.8,19.6c0.1,0.1,0.2,0,0.2,0c0.3-0.6,0.5-1.3,0.6-2l0.3-0.8
			c-0.2-0.2-0.5-0.3-0.8-0.3c-0.1-0.1-0.3-0.1-0.4,0C15.6,17.5,15.6,18.5,15.8,19.6L15.8,19.6L15.8,19.6z M15.9,19.1
			c-0.1-0.8-0.1-1.6,0.1-2.4c0.2,0.1,0.3,0.1,0.5,0.2c-0.2,0.6-0.4,1.2-0.5,1.8C16,18.8,16,19,15.9,19.1L15.9,19.1z"/>
	</g>
	<rect x="30.4" class="st1" width="1.2" height="27.5"/>
	<g>
		<g>
			<path class="st2" d="M46.8,11.7v-5h1.4l1.1,1.8c0.3,0.5,0.6,1.2,0.9,1.7h0c-0.1-0.7-0.1-1.3-0.1-2.1V6.7h1.1v5H50l-1.1-1.9
				c-0.3-0.5-0.7-1.2-0.9-1.8h0c0,0.7,0.1,1.4,0.1,2.2v1.5H46.8z"/>
			<path class="st2" d="M58.8,9.2c0,1.7-1.1,2.7-2.6,2.7c-1.6,0-2.5-1.1-2.5-2.6c0-1.5,1-2.6,2.6-2.6C57.9,6.6,58.8,7.8,58.8,9.2z
				 M55,9.2c0,1,0.5,1.7,1.3,1.7c0.8,0,1.3-0.7,1.3-1.7c0-0.9-0.5-1.7-1.3-1.7C55.4,7.5,55,8.2,55,9.2z"/>
			<path class="st2" d="M61.2,6.8c0.4-0.1,1-0.1,1.6-0.1c0.8,0,1.4,0.1,1.7,0.4c0.3,0.2,0.5,0.6,0.5,1.1c0,0.6-0.5,1.1-0.9,1.2v0
				c0.4,0.1,0.6,0.5,0.7,0.9c0.2,0.6,0.3,1.2,0.4,1.4h-1.2c-0.1-0.1-0.2-0.6-0.4-1.2c-0.2-0.6-0.4-0.8-0.9-0.8h-0.4v2h-1.2V6.8z
				 M62.5,8.9h0.5c0.6,0,1-0.3,1-0.7c0-0.5-0.3-0.7-0.9-0.7c-0.3,0-0.5,0-0.6,0V8.9z"/>
			<path class="st2" d="M69.9,7.6h-1.5v-1h4.1v1h-1.5v4.1h-1.2V7.6z"/>
			<path class="st2" d="M76.1,6.7v1.9h2V6.7h1.2v5h-1.2V9.6h-2v2.1h-1.2v-5H76.1z"/>
			<path class="st2" d="M85.2,9.6h-2v1.2h2.2v0.9H82v-5h3.3v0.9h-2.1v1h2V9.6z"/>
			<path class="st2" d="M87.8,6.8c0.4-0.1,1-0.1,1.6-0.1c0.8,0,1.4,0.1,1.7,0.4c0.3,0.2,0.5,0.6,0.5,1.1c0,0.6-0.5,1.1-0.9,1.2v0
				c0.4,0.1,0.6,0.5,0.7,0.9c0.2,0.6,0.3,1.2,0.4,1.4h-1.2c-0.1-0.1-0.2-0.6-0.4-1.2c-0.2-0.6-0.4-0.8-0.9-0.8H89v2h-1.2V6.8z
				 M89,8.9h0.5c0.6,0,1-0.3,1-0.7c0-0.5-0.3-0.7-0.9-0.7c-0.3,0-0.5,0-0.6,0V8.9z"/>
			<path class="st2" d="M94.2,11.7v-5h1.4l1.1,1.8c0.3,0.5,0.6,1.2,0.9,1.7h0c-0.1-0.7-0.1-1.3-0.1-2.1V6.7h1.1v5h-1.3l-1.1-1.9
				c-0.3-0.5-0.7-1.2-0.9-1.8h0c0,0.7,0.1,1.4,0.1,2.2v1.5H94.2z"/>
		</g>
		<g>
			<path class="st2" d="M38.9,15.8c0.4-0.1,0.9-0.1,1.6-0.1c0.7,0,1.3,0.1,1.6,0.4c0.4,0.3,0.6,0.7,0.6,1.2c0,0.5-0.2,0.9-0.5,1.2
				c-0.4,0.4-1,0.5-1.7,0.5c-0.2,0-0.3,0-0.4,0v1.8h-1.2V15.8z M40.1,18.1c0.1,0,0.2,0,0.4,0c0.6,0,1-0.3,1-0.8c0-0.5-0.3-0.7-1-0.7
				c-0.2,0-0.4,0-0.5,0V18.1z"/>
			<path class="st2" d="M45.1,15.8c0.4-0.1,1-0.1,1.6-0.1c0.8,0,1.4,0.1,1.7,0.4c0.3,0.2,0.5,0.6,0.5,1.1c0,0.6-0.5,1.1-0.9,1.2v0
				c0.4,0.1,0.6,0.5,0.7,0.9c0.2,0.6,0.3,1.2,0.4,1.4h-1.2c-0.1-0.1-0.2-0.6-0.4-1.2c-0.2-0.6-0.4-0.8-0.9-0.8h-0.4v2h-1.2V15.8z
				 M46.3,18h0.5c0.6,0,1-0.3,1-0.7c0-0.5-0.3-0.7-0.9-0.7c-0.3,0-0.5,0-0.5,0V18z"/>
			<path class="st2" d="M56.4,18.2c0,1.7-1.1,2.7-2.6,2.7c-1.6,0-2.5-1.1-2.5-2.6c0-1.5,1-2.6,2.6-2.6
				C55.5,15.7,56.4,16.8,56.4,18.2z M52.5,18.3c0,1,0.5,1.7,1.3,1.7c0.8,0,1.3-0.7,1.3-1.7c0-0.9-0.5-1.7-1.3-1.7
				C53,16.6,52.5,17.3,52.5,18.3z"/>
			<path class="st2" d="M58.8,15.8c0.4-0.1,1-0.1,1.6-0.1c1,0,1.7,0.2,2.2,0.5c0.6,0.4,0.9,1,0.9,1.9c0,1-0.4,1.6-0.9,2
				c-0.6,0.4-1.4,0.7-2.5,0.7c-0.6,0-1.1,0-1.4-0.1V15.8z M60,19.9c0.1,0,0.3,0,0.4,0c1.1,0,1.8-0.6,1.8-1.8c0-1-0.7-1.6-1.7-1.6
				c-0.3,0-0.4,0-0.6,0V19.9z"/>
			<path class="st2" d="M67.1,15.8v2.9c0,0.9,0.4,1.3,1,1.3c0.6,0,1-0.4,1-1.3v-2.9h1.2v2.8c0,1.6-0.8,2.3-2.2,2.3
				c-1.4,0-2.1-0.7-2.1-2.3v-2.8H67.1z"/>
			<path class="st2" d="M76.9,20.7c-0.2,0.1-0.7,0.2-1.4,0.2c-1.9,0-2.8-1.1-2.8-2.5c0-1.7,1.3-2.7,2.9-2.7c0.6,0,1.1,0.1,1.3,0.2
				l-0.3,0.9c-0.2-0.1-0.6-0.2-1-0.2c-1,0-1.7,0.5-1.7,1.7c0,1,0.6,1.6,1.7,1.6c0.4,0,0.8-0.1,1-0.2L76.9,20.7z"/>
			<path class="st2" d="M80.1,16.7h-1.5v-1h4.1v1h-1.5v4.1h-1.2V16.7z"/>
			<path class="st2" d="M86.2,15.8v5H85v-5H86.2z"/>
			<path class="st2" d="M93.8,18.2c0,1.7-1.1,2.7-2.6,2.7c-1.6,0-2.5-1.1-2.5-2.6c0-1.5,1-2.6,2.6-2.6
				C92.9,15.7,93.8,16.8,93.8,18.2z M89.9,18.3c0,1,0.5,1.7,1.3,1.7c0.8,0,1.3-0.7,1.3-1.7c0-0.9-0.5-1.7-1.3-1.7
				C90.4,16.6,89.9,17.3,89.9,18.3z"/>
			<path class="st2" d="M96.2,20.8v-5h1.4l1.1,1.8c0.3,0.5,0.6,1.2,0.9,1.7h0c-0.1-0.7-0.1-1.3-0.1-2.1v-1.5h1.1v5h-1.3l-1.1-1.9
				c-0.3-0.5-0.7-1.2-0.9-1.8h0c0,0.7,0.1,1.4,0.1,2.2v1.5H96.2z"/>
			<path class="st2" d="M103.3,19.6c0.3,0.2,0.8,0.3,1.3,0.3c0.6,0,0.9-0.2,0.9-0.5c0-0.3-0.3-0.5-0.9-0.7c-0.9-0.3-1.5-0.8-1.5-1.5
				c0-0.9,0.8-1.5,2-1.5c0.6,0,1.1,0.1,1.4,0.3l-0.3,0.9c-0.2-0.1-0.6-0.2-1.1-0.2c-0.5,0-0.8,0.2-0.8,0.5c0,0.3,0.3,0.5,1,0.7
				c0.9,0.3,1.4,0.8,1.4,1.5c0,0.8-0.7,1.6-2.2,1.6c-0.6,0-1.2-0.2-1.5-0.3L103.3,19.6z"/>
		</g>
	</g>
</g>
</svg>
