<!-- Generator: Adobe Illustrator 22.1.0, SVG Export Plug-In  -->
<svg version="1.1"
	 xmlns="http://www.w3.org/2000/svg" xmlns:xlink="http://www.w3.org/1999/xlink" xmlns:a="http://ns.adobe.com/AdobeSVGViewerExtensions/3.0/"
	 x="0px" y="0px" width="106.772px" height="15.621px" viewBox="0 0 106.772 15.621"
	 style="enable-background:new 0 0 106.772 15.621;" xml:space="preserve">
<style type="text/css">
	.st0{fill:#1E427F;}
</style>
<defs>
</defs>
<g>
	<g>
		<g>
			<path class="st0" d="M72.541,11.273l2.115-11.074H63.255C67.669,2.235,71.059,6.867,72.541,11.273z"/>
		</g>
		<path class="st0" d="M72.356,12.85h-1.198c-1.381-5.438-6.215-11.74-12.349-11.91L56.08,15.23h2.676L60.752,4.35
			c3.931,0.213,7.54,6.634,7.85,10.881h2.939c0-0.002,0-0.003,0-0.005h0.39L72.356,12.85z"/>
	</g>
	<path class="st0" d="M97.325,3.564c-0.318,0.257-0.622,0.571-0.9,0.939c-0.929,1.236-1.412,2.808-1.521,4.512
		c-0.01,1.111,0,1.965,0.915,3.041c0.822,0.782,1.581,0.833,2.468,0.753c0.967-0.138,1.954-0.595,2.909-1.832
		c0.937-1.245,1.416-2.807,1.524-4.514c0.013-1.108,0.003-1.964-0.909-3.037C100.454,2.23,98.841,2.428,97.325,3.564 M96.305,15.511
		c-0.793-0.084-1.497-0.269-2.111-0.538c-0.615-0.271-1.141-0.627-1.592-1.057c-0.45-0.433-0.825-0.939-1.115-1.512
		c-0.656-1.279-0.785-2.751-0.538-4.287c0.137-0.843,0.396-1.728,0.76-2.532c0.363-0.805,0.831-1.529,1.412-2.192
		c1.258-1.431,2.834-2.413,4.414-2.9c0.846-0.262,1.735-0.402,2.579-0.429c0.846-0.026,1.647,0.059,2.343,0.236
		c0.697,0.177,1.289,0.445,1.812,0.799c0.525,0.352,0.983,0.787,1.358,1.291c0.374,0.505,0.667,1.077,0.862,1.716
		c0.577,1.953,0.329,4.542-1.237,7.075c-0.483,0.753-1.084,1.444-1.757,2.037c-1.41,1.249-3.029,1.972-4.663,2.221
		C97.979,15.572,97.098,15.592,96.305,15.511"/>
	<path class="st0" d="M89.618,5.48l-2.251,0.001c-0.151-0.443-0.353-0.872-0.569-1.218c-1.289-1.823-2.355-1.698-3.66-1.628
		c-1.077,0.153-2.119,0.582-3.133,1.911c-0.615,0.816-1.027,1.896-1.249,2.973c-0.118,0.581-0.182,1.162-0.188,1.663
		c0.038,1.097,0.059,1.914,1.099,2.953c1.535,1.149,3.547,0.984,5.3-0.387c0.367-0.295,0.717-0.648,1.061-1.098
		c0.345-0.448,0.678-0.992,0.959-1.565l2.451,1.288c-0.424,0.801-0.939,1.55-1.488,2.178c-1.924,2.115-3.834,2.797-6.076,2.992
		c-0.779,0.056-1.546,0.026-2.229-0.084c-0.686-0.112-1.287-0.305-1.824-0.565c-0.538-0.262-1.012-0.587-1.426-0.975
		c-0.95-0.904-1.44-1.912-1.688-2.996c-0.392-1.825-0.103-4.169,1.243-6.494c1.489-2.369,3.522-3.588,5.494-4.124
		c0.737-0.191,1.505-0.286,2.222-0.291c0.718-0.006,1.383,0.075,1.941,0.222c0.561,0.145,1.012,0.358,1.41,0.629
		c0.398,0.272,0.739,0.604,1.014,0.983l0.291-1.577h2.257L89.618,5.48z"/>
	<polygon class="st0" points="21.964,15.256 14.168,15.256 14.646,12.792 16.71,12.792 18.681,2.655 16.63,2.655 15.952,6.136 
		13.509,6.136 14.645,0.299 27.322,0.299 26.187,6.136 23.743,6.136 24.421,2.655 22.35,2.655 20.379,12.792 22.44,12.792 	"/>
	<path class="st0" d="M11.879,4.765H9.44c0.097-0.766,0.112-1.319-0.54-1.94C7.126,1.676,5.494,3.249,5.634,4.144
		c-0.15,0.438,0.64,1.279,1.273,1.488l1.782,0.883c1.27,0.576,2.41,1.644,2.667,2.679c0.415,2.127-0.145,3.981-2.339,5.545
		c-2.521,1.352-4.64,1.104-6.414-0.414l-0.181,0.932H0l1.003-5.154h2.419c-0.128,0.675-0.116,1.361,0.056,1.779
		c0.413,1.253,2.137,1.219,2.766,1.02c1.625-0.608,1.826-1.822,1.116-2.761C6.842,9.567,6.536,9.481,6.022,9.213
		c-1.546-0.887-3.704-1.69-4.027-3.244c-0.336-2.01,0.228-3.648,2.282-5.121c2.164-1.187,4.082-1.171,5.858,0.318l0.17-0.868h2.442
		L11.879,4.765z"/>
	<path class="st0" d="M39.477,5.726c-0.371,1.074-1.836,2.2-2.848,2.34l1.477,4.725h1.705l-0.479,2.464h-4.2l-2.095-6.581h-1.521
		l-0.801,4.118h1.592l-0.478,2.464h-6.85l0.48-2.464h1.59l1.969-10.136h-1.591l0.459-2.356h7.07c0.7,0,1.403,0.042,1.941,0.122
		c0.831,0.134,1.271,0.261,1.91,0.633C40.54,2.069,39.959,4.592,39.477,5.726 M34.844,2.669c-1.177,0-2.157-0.013-2.157-0.013
		l-0.705,3.621c0,0,0.606,0.002,0.957,0.002c0.35,0,1.328,0.075,2.005-0.275c0.677-0.351,1.002-1.304,1.104-1.855
		C36.147,3.596,36.022,2.669,34.844,2.669"/>
	<path class="st0" d="M52.849,13.225c-1.41,1.247-3.029,1.97-4.663,2.22c-0.851,0.133-1.732,0.154-2.525,0.072
		c-0.793-0.084-1.497-0.269-2.112-0.538c-0.614-0.271-1.14-0.626-1.591-1.058c-0.45-0.431-0.825-0.938-1.115-1.511
		c-0.656-1.279-0.785-2.751-0.538-4.288c0.138-0.842,0.396-1.727,0.76-2.531c0.363-0.805,0.831-1.529,1.411-2.191
		c1.259-1.432,2.833-2.414,4.414-2.901c0.845-0.263,1.734-0.402,2.579-0.429c0.845-0.025,1.647,0.059,2.343,0.236
		c0.696,0.177,1.287,0.445,1.811,0.798c0.524,0.352,0.981,0.787,1.357,1.291c0.374,0.503,0.667,1.076,0.863,1.716
		c0.577,1.953,0.329,4.542-1.237,7.074C54.122,11.94,53.521,12.631,52.849,13.225 M46.68,3.571c-0.317,0.258-0.62,0.571-0.9,0.94
		c-0.929,1.236-1.412,2.807-1.52,4.512c-0.011,1.111-0.001,1.966,0.914,3.041c0.822,0.783,1.582,0.833,2.468,0.753
		c0.967-0.138,1.953-0.595,2.91-1.832c0.937-1.245,1.413-2.809,1.524-4.513c0.011-1.107,0.002-1.965-0.91-3.037
		C49.809,2.237,48.197,2.436,46.68,3.571"/>
</g>
</svg>