<!-- Generator: Adobe Illustrator 22.1.0, SVG Export Plug-In  -->
<svg version="1.1"
	 xmlns="http://www.w3.org/2000/svg" xmlns:xlink="http://www.w3.org/1999/xlink" xmlns:a="http://ns.adobe.com/AdobeSVGViewerExtensions/3.0/"
	 x="0px" y="0px" width="113.294px" height="9.498px" viewBox="0 0 113.294 9.498"
	 style="enable-background:new 0 0 113.294 9.498;" xml:space="preserve">
<style type="text/css">
	.st0{fill:none;stroke:#636466;stroke-width:0.2289;stroke-miterlimit:10;}
</style>
<defs>
</defs>
<g>
	<path class="st0" d="M6.989,3.854c0,0.521-0.078,1.009-0.233,1.465c-0.155,0.457-0.38,0.854-0.673,1.19
		C5.789,6.846,5.43,7.111,5.005,7.304c-0.426,0.193-0.908,0.29-1.448,0.29s-1.024-0.097-1.453-0.29
		C1.676,7.111,1.315,6.846,1.021,6.509c-0.293-0.337-0.518-0.733-0.673-1.19C0.193,4.862,0.114,4.374,0.114,3.854
		c0-0.52,0.078-1.008,0.233-1.465c0.155-0.456,0.38-0.854,0.673-1.189c0.294-0.337,0.655-0.602,1.083-0.795
		c0.429-0.193,0.913-0.29,1.453-0.29s1.022,0.097,1.448,0.29C5.43,0.598,5.789,0.862,6.083,1.199
		c0.293,0.336,0.518,0.733,0.673,1.189C6.911,2.846,6.989,3.334,6.989,3.854z M0.561,3.854c0,0.46,0.067,0.894,0.202,1.301
		c0.135,0.406,0.33,0.762,0.587,1.064c0.257,0.304,0.57,0.545,0.941,0.725c0.371,0.181,0.793,0.271,1.266,0.271
		s0.893-0.09,1.261-0.271c0.367-0.18,0.68-0.421,0.937-0.725C6.01,5.916,6.206,5.561,6.341,5.154
		c0.135-0.407,0.202-0.841,0.202-1.301s-0.067-0.893-0.202-1.3C6.206,2.148,6.01,1.792,5.754,1.489
		C5.497,1.186,5.185,0.944,4.818,0.764c-0.368-0.18-0.788-0.27-1.261-0.27s-0.895,0.09-1.266,0.27S1.607,1.186,1.35,1.489
		C1.093,1.792,0.898,2.148,0.763,2.554C0.628,2.961,0.561,3.394,0.561,3.854z"/>
	<path class="st0" d="M8.68,3.424h0.031c0.047-0.167,0.133-0.323,0.258-0.47s0.276-0.273,0.455-0.38
		c0.18-0.107,0.378-0.188,0.598-0.245s0.447-0.082,0.684-0.075v0.38c-0.202-0.026-0.434-0.007-0.693,0.06
		c-0.26,0.067-0.508,0.214-0.744,0.44C9.173,3.234,9.09,3.33,9.02,3.424C8.948,3.518,8.89,3.62,8.842,3.734
		c-0.047,0.114-0.084,0.24-0.111,0.381c-0.026,0.14-0.044,0.307-0.051,0.5v2.81H8.296v-5.14H8.68V3.424z"/>
	<path class="st0" d="M15.332,3.874c-0.021-0.227-0.08-0.427-0.178-0.601c-0.098-0.173-0.225-0.316-0.38-0.43s-0.336-0.2-0.541-0.26
		c-0.206-0.061-0.427-0.09-0.663-0.09c-0.324,0-0.611,0.064-0.86,0.194c-0.25,0.13-0.46,0.304-0.628,0.521
		c-0.169,0.217-0.297,0.463-0.385,0.74c-0.088,0.276-0.132,0.562-0.132,0.854c0,0.347,0.041,0.667,0.121,0.96
		c0.081,0.294,0.206,0.549,0.375,0.766c0.169,0.216,0.378,0.385,0.628,0.505c0.249,0.12,0.543,0.18,0.881,0.18
		c0.243,0,0.467-0.04,0.673-0.12s0.388-0.189,0.547-0.33c0.158-0.14,0.288-0.309,0.39-0.505s0.169-0.411,0.202-0.645h0.385
		c-0.04,0.307-0.125,0.579-0.253,0.819s-0.29,0.442-0.485,0.605c-0.196,0.163-0.419,0.288-0.669,0.375
		c-0.249,0.086-0.513,0.13-0.789,0.13c-0.426,0-0.788-0.075-1.089-0.226c-0.3-0.149-0.547-0.352-0.739-0.604
		c-0.191-0.253-0.334-0.545-0.425-0.875s-0.137-0.675-0.137-1.035s0.053-0.7,0.157-1.02c0.104-0.32,0.258-0.601,0.46-0.841
		c0.203-0.239,0.452-0.43,0.75-0.569c0.297-0.141,0.638-0.21,1.022-0.21c0.283,0,0.548,0.035,0.795,0.104
		c0.246,0.07,0.465,0.175,0.657,0.315c0.192,0.14,0.35,0.318,0.471,0.535c0.122,0.217,0.196,0.468,0.224,0.755H15.332z"/>
	<path class="st0" d="M17.478,0.284v3.1h0.021c0.067-0.193,0.164-0.365,0.289-0.515c0.124-0.15,0.27-0.278,0.435-0.386
		c0.166-0.106,0.347-0.187,0.542-0.239c0.195-0.054,0.395-0.08,0.598-0.08c0.304,0,0.562,0.036,0.774,0.109
		c0.213,0.074,0.386,0.17,0.521,0.29c0.135,0.12,0.241,0.255,0.318,0.405c0.078,0.15,0.134,0.302,0.167,0.455
		c0.034,0.153,0.055,0.302,0.062,0.445c0.006,0.144,0.01,0.269,0.01,0.375v3.18h-0.385v-3.25c0-0.127-0.01-0.286-0.03-0.48
		c-0.021-0.192-0.079-0.378-0.178-0.555c-0.098-0.177-0.246-0.328-0.445-0.455c-0.199-0.126-0.474-0.189-0.825-0.189
		c-0.297,0-0.56,0.053-0.789,0.16c-0.229,0.106-0.426,0.255-0.588,0.444c-0.161,0.19-0.285,0.417-0.369,0.681
		c-0.084,0.263-0.127,0.551-0.127,0.864v2.78h-0.384v-7.14H17.478z"/>
	<path class="st0" d="M22.915,4.904v0.06c0,0.3,0.04,0.587,0.121,0.86c0.082,0.273,0.201,0.513,0.36,0.72s0.359,0.37,0.6,0.49
		s0.519,0.18,0.837,0.18c0.521,0,0.935-0.135,1.238-0.405c0.305-0.27,0.515-0.645,0.63-1.125h0.385
		c-0.115,0.601-0.363,1.061-0.744,1.38c-0.382,0.32-0.886,0.48-1.514,0.48c-0.385,0-0.721-0.068-1.007-0.205
		c-0.287-0.137-0.527-0.323-0.72-0.56c-0.191-0.237-0.335-0.517-0.43-0.841c-0.095-0.323-0.142-0.671-0.142-1.045
		c0-0.359,0.049-0.705,0.146-1.035c0.098-0.329,0.244-0.619,0.44-0.869c0.195-0.25,0.44-0.45,0.734-0.601
		c0.293-0.149,0.639-0.225,1.037-0.225c0.364,0,0.687,0.066,0.967,0.2c0.28,0.133,0.515,0.314,0.704,0.545
		c0.188,0.229,0.332,0.496,0.43,0.8c0.099,0.304,0.147,0.628,0.147,0.975c0,0.033-0.002,0.072-0.005,0.115
		c-0.004,0.043-0.006,0.078-0.006,0.105H22.915z M26.741,4.574c-0.014-0.28-0.061-0.545-0.142-0.795s-0.201-0.471-0.36-0.66
		c-0.159-0.19-0.352-0.342-0.579-0.455c-0.227-0.113-0.485-0.17-0.776-0.17c-0.312,0-0.585,0.059-0.822,0.175
		c-0.236,0.116-0.437,0.27-0.599,0.46c-0.162,0.189-0.288,0.412-0.376,0.665s-0.142,0.514-0.162,0.78H26.741z"/>
	<path class="st0" d="M28.634,5.714c0.014,0.24,0.067,0.452,0.162,0.635c0.095,0.184,0.218,0.34,0.369,0.47
		c0.152,0.131,0.329,0.229,0.532,0.296c0.202,0.066,0.422,0.1,0.658,0.1c0.168,0,0.349-0.015,0.541-0.045s0.371-0.085,0.537-0.165
		c0.165-0.08,0.302-0.191,0.409-0.335c0.108-0.144,0.162-0.325,0.162-0.545c0-0.287-0.088-0.504-0.263-0.65
		c-0.176-0.146-0.396-0.26-0.663-0.34s-0.554-0.145-0.86-0.195c-0.308-0.05-0.595-0.125-0.861-0.225s-0.487-0.241-0.663-0.425
		c-0.175-0.184-0.263-0.452-0.263-0.806c0-0.253,0.057-0.465,0.172-0.635c0.114-0.17,0.262-0.305,0.44-0.405
		c0.179-0.1,0.38-0.171,0.603-0.215c0.223-0.043,0.445-0.064,0.668-0.064c0.27,0,0.523,0.029,0.76,0.09
		c0.235,0.06,0.44,0.156,0.612,0.29s0.307,0.304,0.404,0.51c0.099,0.207,0.147,0.457,0.147,0.75h-0.385
		c0-0.233-0.039-0.434-0.116-0.6c-0.078-0.167-0.187-0.302-0.324-0.405c-0.139-0.104-0.302-0.18-0.491-0.23
		c-0.188-0.05-0.392-0.074-0.607-0.074c-0.176,0-0.353,0.017-0.531,0.05s-0.339,0.09-0.481,0.17c-0.142,0.08-0.258,0.184-0.349,0.31
		c-0.092,0.127-0.137,0.28-0.137,0.46c0,0.207,0.051,0.374,0.151,0.5c0.102,0.127,0.234,0.229,0.4,0.306
		c0.165,0.076,0.351,0.139,0.557,0.185c0.206,0.047,0.413,0.094,0.623,0.141c0.256,0.046,0.497,0.102,0.724,0.165
		c0.226,0.062,0.422,0.149,0.587,0.26c0.165,0.109,0.295,0.252,0.39,0.425c0.095,0.174,0.142,0.394,0.142,0.66
		c0,0.28-0.063,0.51-0.192,0.689c-0.128,0.181-0.29,0.325-0.485,0.436c-0.196,0.109-0.414,0.187-0.653,0.229
		c-0.239,0.044-0.475,0.065-0.703,0.065c-0.298,0-0.572-0.038-0.825-0.115c-0.254-0.076-0.475-0.193-0.663-0.35
		c-0.189-0.157-0.338-0.349-0.446-0.575c-0.107-0.227-0.165-0.49-0.172-0.79H28.634z"/>
	<path class="st0" d="M35.66,2.614h-1.134v3.59c0,0.206,0.023,0.37,0.07,0.489c0.048,0.12,0.12,0.212,0.218,0.275
		s0.216,0.102,0.354,0.115s0.299,0.017,0.481,0.01v0.33c-0.196,0.014-0.387,0.012-0.572-0.005s-0.35-0.066-0.491-0.15
		c-0.142-0.083-0.255-0.208-0.339-0.375c-0.085-0.166-0.12-0.396-0.106-0.689v-3.59H33.18v-0.33h0.962V0.684h0.385v1.601h1.134
		V2.614z"/>
	<path class="st0" d="M37.178,3.424h0.031c0.047-0.167,0.133-0.323,0.258-0.47s0.276-0.273,0.455-0.38
		c0.18-0.107,0.378-0.188,0.598-0.245s0.447-0.082,0.684-0.075v0.38c-0.202-0.026-0.434-0.007-0.693,0.06
		c-0.26,0.067-0.508,0.214-0.744,0.44c-0.095,0.1-0.178,0.196-0.248,0.29c-0.071,0.094-0.13,0.196-0.178,0.31
		c-0.047,0.114-0.084,0.24-0.111,0.381c-0.026,0.14-0.044,0.307-0.051,0.5v2.81h-0.384v-5.14h0.384V3.424z"/>
	<path class="st0" d="M43.284,6.404h-0.021C43.203,6.558,43.115,6.702,43,6.839c-0.114,0.137-0.255,0.259-0.42,0.365
		s-0.353,0.189-0.562,0.25c-0.209,0.06-0.439,0.09-0.688,0.09c-0.554,0-0.982-0.118-1.286-0.355
		c-0.304-0.236-0.455-0.602-0.455-1.095c0-0.3,0.061-0.545,0.182-0.735c0.122-0.189,0.275-0.34,0.461-0.449
		c0.186-0.11,0.392-0.188,0.617-0.235c0.227-0.047,0.444-0.08,0.653-0.1L42.1,4.524c0.276-0.02,0.494-0.051,0.652-0.095
		c0.159-0.043,0.279-0.104,0.359-0.18c0.081-0.077,0.132-0.175,0.152-0.295s0.03-0.271,0.03-0.45c0-0.14-0.027-0.271-0.081-0.39
		c-0.054-0.12-0.139-0.227-0.253-0.32c-0.115-0.094-0.264-0.167-0.445-0.22c-0.183-0.054-0.405-0.08-0.668-0.08
		c-0.466,0-0.843,0.113-1.129,0.34c-0.287,0.227-0.444,0.57-0.471,1.03h-0.385c0.026-0.567,0.211-0.992,0.552-1.275
		s0.825-0.425,1.452-0.425c0.628,0,1.085,0.121,1.372,0.365c0.287,0.243,0.431,0.562,0.431,0.954v2.99
		c0,0.073,0.001,0.146,0.005,0.22c0.003,0.074,0.015,0.141,0.035,0.2c0.021,0.061,0.054,0.108,0.102,0.146
		c0.047,0.036,0.114,0.055,0.202,0.055c0.067,0,0.162-0.01,0.283-0.03v0.32c-0.101,0.026-0.206,0.04-0.313,0.04
		c-0.155,0-0.278-0.02-0.369-0.06c-0.092-0.04-0.161-0.094-0.208-0.16s-0.079-0.146-0.096-0.235
		c-0.018-0.09-0.025-0.188-0.025-0.295V6.404z M43.284,4.504c-0.095,0.113-0.238,0.189-0.431,0.229s-0.406,0.07-0.643,0.091
		l-0.648,0.06c-0.188,0.021-0.378,0.049-0.566,0.085c-0.189,0.037-0.359,0.099-0.512,0.186c-0.151,0.086-0.274,0.204-0.369,0.354
		s-0.142,0.345-0.142,0.585c0,0.38,0.121,0.662,0.364,0.845c0.243,0.184,0.577,0.275,1.002,0.275c0.438,0,0.786-0.078,1.043-0.235
		c0.257-0.156,0.452-0.336,0.587-0.54c0.135-0.203,0.222-0.399,0.259-0.59c0.037-0.189,0.056-0.318,0.056-0.385V4.504z"/>
	<path class="st0" d="M47.233,2.614h-1.134v3.59c0,0.206,0.023,0.37,0.07,0.489c0.048,0.12,0.12,0.212,0.218,0.275
		s0.216,0.102,0.354,0.115s0.299,0.017,0.481,0.01v0.33c-0.196,0.014-0.387,0.012-0.572-0.005s-0.35-0.066-0.491-0.15
		c-0.142-0.083-0.255-0.208-0.339-0.375c-0.085-0.166-0.12-0.396-0.106-0.689v-3.59h-0.962v-0.33h0.962V0.684h0.385v1.601h1.134
		V2.614z"/>
	<path class="st0" d="M48.457,1.314V0.284h0.385v1.029H48.457z M48.457,7.424v-5.14h0.385v5.14H48.457z"/>
	<path class="st0" d="M50.492,2.284h0.384v1.1h0.021c0.067-0.193,0.164-0.365,0.289-0.515c0.124-0.15,0.27-0.278,0.435-0.386
		c0.166-0.106,0.347-0.187,0.542-0.239c0.195-0.054,0.395-0.08,0.598-0.08c0.304,0,0.562,0.036,0.774,0.109
		c0.213,0.074,0.386,0.17,0.521,0.29c0.135,0.12,0.241,0.255,0.318,0.405c0.078,0.15,0.134,0.302,0.167,0.455
		c0.034,0.153,0.055,0.302,0.062,0.445c0.006,0.144,0.01,0.269,0.01,0.375v3.18h-0.385v-3.25c0-0.127-0.01-0.286-0.03-0.48
		c-0.021-0.192-0.079-0.378-0.178-0.555c-0.098-0.177-0.246-0.328-0.445-0.455c-0.199-0.126-0.474-0.189-0.825-0.189
		c-0.297,0-0.56,0.053-0.789,0.16c-0.229,0.106-0.426,0.255-0.588,0.444c-0.161,0.19-0.285,0.417-0.369,0.681
		c-0.084,0.263-0.127,0.551-0.127,0.864v2.78h-0.384V2.284z"/>
	<path class="st0" d="M60.464,2.284v4.87c0,0.286-0.033,0.564-0.101,0.835c-0.067,0.27-0.184,0.508-0.349,0.715
		c-0.165,0.206-0.393,0.371-0.682,0.495c-0.29,0.123-0.657,0.185-1.102,0.185c-0.275,0-0.535-0.028-0.777-0.085
		S57,9.153,56.819,9.029c-0.183-0.124-0.329-0.287-0.439-0.49c-0.111-0.204-0.174-0.455-0.188-0.755h0.385
		c0.021,0.227,0.078,0.42,0.172,0.58c0.095,0.159,0.218,0.291,0.37,0.395c0.151,0.104,0.322,0.179,0.511,0.225
		c0.189,0.047,0.392,0.07,0.607,0.07c0.358,0,0.656-0.054,0.896-0.16c0.239-0.106,0.43-0.245,0.572-0.415
		c0.142-0.17,0.241-0.363,0.298-0.58c0.058-0.217,0.087-0.435,0.087-0.654V6.064h-0.03c-0.182,0.38-0.429,0.67-0.742,0.87
		s-0.691,0.3-1.137,0.3c-0.384,0-0.715-0.064-0.994-0.194c-0.28-0.13-0.513-0.311-0.697-0.54c-0.186-0.23-0.323-0.498-0.414-0.806
		c-0.091-0.306-0.137-0.64-0.137-1c0-0.34,0.049-0.663,0.146-0.97c0.099-0.307,0.241-0.575,0.431-0.805
		c0.188-0.23,0.424-0.413,0.704-0.55c0.279-0.137,0.602-0.205,0.967-0.205c0.411,0,0.791,0.104,1.139,0.31
		c0.348,0.207,0.596,0.5,0.744,0.88h0.021V2.284H60.464z M58.187,2.494c-0.317,0-0.593,0.063-0.825,0.189
		c-0.233,0.127-0.426,0.294-0.577,0.5c-0.152,0.207-0.267,0.442-0.345,0.705c-0.077,0.264-0.116,0.532-0.116,0.805
		c0,0.301,0.039,0.586,0.116,0.855c0.078,0.27,0.196,0.505,0.354,0.705s0.354,0.358,0.587,0.475
		c0.233,0.117,0.502,0.176,0.806,0.176c0.316,0,0.594-0.061,0.83-0.181s0.434-0.283,0.592-0.49c0.158-0.206,0.276-0.441,0.354-0.704
		c0.077-0.264,0.116-0.542,0.116-0.836c0-0.286-0.039-0.562-0.116-0.829c-0.078-0.267-0.196-0.502-0.354-0.705
		c-0.158-0.204-0.355-0.365-0.592-0.485S58.503,2.494,58.187,2.494z"/>
	<path class="st0" d="M65.344,0.284h4.859v0.38h-4.414v2.859h4.151v0.381h-4.151v3.14h4.465v0.38h-4.91V0.284z"/>
	<path class="st0" d="M72.784,4.724l-1.903-2.439h0.536l1.63,2.149l1.641-2.149h0.496l-1.883,2.439l2.055,2.7h-0.526l-1.782-2.41
		l-1.822,2.41h-0.485L72.784,4.724z"/>
	<path class="st0" d="M80.084,3.874c-0.021-0.227-0.08-0.427-0.178-0.601c-0.098-0.173-0.225-0.316-0.38-0.43s-0.336-0.2-0.541-0.26
		c-0.206-0.061-0.427-0.09-0.663-0.09c-0.324,0-0.611,0.064-0.86,0.194c-0.25,0.13-0.46,0.304-0.628,0.521
		c-0.169,0.217-0.297,0.463-0.385,0.74c-0.088,0.276-0.132,0.562-0.132,0.854c0,0.347,0.041,0.667,0.121,0.96
		c0.081,0.294,0.206,0.549,0.375,0.766c0.169,0.216,0.378,0.385,0.628,0.505c0.249,0.12,0.543,0.18,0.881,0.18
		c0.243,0,0.467-0.04,0.673-0.12s0.388-0.189,0.547-0.33c0.158-0.14,0.288-0.309,0.39-0.505s0.169-0.411,0.202-0.645h0.385
		c-0.04,0.307-0.125,0.579-0.253,0.819s-0.29,0.442-0.485,0.605c-0.196,0.163-0.419,0.288-0.669,0.375
		c-0.249,0.086-0.513,0.13-0.789,0.13c-0.426,0-0.788-0.075-1.089-0.226c-0.3-0.149-0.547-0.352-0.739-0.604
		c-0.191-0.253-0.334-0.545-0.425-0.875s-0.137-0.675-0.137-1.035s0.053-0.7,0.157-1.02c0.104-0.32,0.258-0.601,0.46-0.841
		c0.203-0.239,0.452-0.43,0.75-0.569c0.297-0.141,0.638-0.21,1.022-0.21c0.283,0,0.548,0.035,0.795,0.104
		c0.246,0.07,0.465,0.175,0.657,0.315c0.192,0.14,0.35,0.318,0.471,0.535c0.122,0.217,0.196,0.468,0.224,0.755H80.084z"/>
	<path class="st0" d="M81.987,4.904v0.06c0,0.3,0.04,0.587,0.121,0.86c0.082,0.273,0.201,0.513,0.36,0.72s0.359,0.37,0.6,0.49
		s0.519,0.18,0.837,0.18c0.521,0,0.935-0.135,1.238-0.405c0.305-0.27,0.515-0.645,0.63-1.125h0.385
		c-0.115,0.601-0.363,1.061-0.744,1.38c-0.382,0.32-0.886,0.48-1.514,0.48c-0.385,0-0.721-0.068-1.007-0.205
		c-0.287-0.137-0.527-0.323-0.72-0.56c-0.191-0.237-0.335-0.517-0.43-0.841c-0.095-0.323-0.142-0.671-0.142-1.045
		c0-0.359,0.049-0.705,0.146-1.035c0.098-0.329,0.244-0.619,0.44-0.869c0.195-0.25,0.44-0.45,0.734-0.601
		c0.293-0.149,0.639-0.225,1.037-0.225c0.364,0,0.687,0.066,0.967,0.2c0.28,0.133,0.515,0.314,0.704,0.545
		c0.188,0.229,0.332,0.496,0.43,0.8c0.099,0.304,0.147,0.628,0.147,0.975c0,0.033-0.002,0.072-0.005,0.115
		c-0.004,0.043-0.006,0.078-0.006,0.105H81.987z M85.814,4.574c-0.014-0.28-0.061-0.545-0.142-0.795s-0.201-0.471-0.36-0.66
		c-0.159-0.19-0.352-0.342-0.579-0.455c-0.227-0.113-0.485-0.17-0.776-0.17c-0.312,0-0.585,0.059-0.822,0.175
		c-0.236,0.116-0.437,0.27-0.599,0.46c-0.162,0.189-0.288,0.412-0.376,0.665s-0.142,0.514-0.162,0.78H85.814z"/>
	<path class="st0" d="M88.001,0.284v7.14h-0.385v-7.14H88.001z"/>
	<path class="st0" d="M90.127,0.284v7.14h-0.385v-7.14H90.127z"/>
	<path class="st0" d="M91.919,4.904v0.06c0,0.3,0.04,0.587,0.121,0.86c0.082,0.273,0.201,0.513,0.36,0.72s0.359,0.37,0.6,0.49
		s0.519,0.18,0.837,0.18c0.521,0,0.935-0.135,1.238-0.405c0.305-0.27,0.515-0.645,0.63-1.125h0.385
		c-0.115,0.601-0.363,1.061-0.744,1.38c-0.382,0.32-0.886,0.48-1.514,0.48c-0.385,0-0.721-0.068-1.007-0.205
		c-0.287-0.137-0.527-0.323-0.72-0.56c-0.191-0.237-0.335-0.517-0.43-0.841c-0.095-0.323-0.142-0.671-0.142-1.045
		c0-0.359,0.049-0.705,0.146-1.035c0.098-0.329,0.244-0.619,0.44-0.869c0.195-0.25,0.44-0.45,0.734-0.601
		c0.293-0.149,0.639-0.225,1.037-0.225c0.364,0,0.687,0.066,0.967,0.2c0.28,0.133,0.515,0.314,0.704,0.545
		c0.188,0.229,0.332,0.496,0.43,0.8c0.099,0.304,0.147,0.628,0.147,0.975c0,0.033-0.002,0.072-0.005,0.115
		c-0.004,0.043-0.006,0.078-0.006,0.105H91.919z M95.745,4.574c-0.014-0.28-0.061-0.545-0.142-0.795s-0.201-0.471-0.36-0.66
		c-0.159-0.19-0.352-0.342-0.579-0.455c-0.227-0.113-0.485-0.17-0.776-0.17c-0.312,0-0.585,0.059-0.822,0.175
		c-0.236,0.116-0.437,0.27-0.599,0.46c-0.162,0.189-0.288,0.412-0.376,0.665s-0.142,0.514-0.162,0.78H95.745z"/>
	<path class="st0" d="M97.457,2.284h0.384v1.1h0.021c0.067-0.193,0.164-0.365,0.289-0.515c0.124-0.15,0.27-0.278,0.435-0.386
		c0.166-0.106,0.347-0.187,0.542-0.239c0.195-0.054,0.395-0.08,0.598-0.08c0.304,0,0.562,0.036,0.774,0.109
		c0.213,0.074,0.386,0.17,0.521,0.29c0.135,0.12,0.241,0.255,0.318,0.405c0.078,0.15,0.134,0.302,0.167,0.455
		c0.034,0.153,0.055,0.302,0.062,0.445c0.006,0.144,0.01,0.269,0.01,0.375v3.18h-0.385v-3.25c0-0.127-0.01-0.286-0.03-0.48
		c-0.021-0.192-0.079-0.378-0.178-0.555c-0.098-0.177-0.246-0.328-0.445-0.455c-0.199-0.126-0.474-0.189-0.825-0.189
		c-0.297,0-0.56,0.053-0.789,0.16c-0.229,0.106-0.426,0.255-0.588,0.444c-0.161,0.19-0.285,0.417-0.369,0.681
		c-0.084,0.263-0.127,0.551-0.127,0.864v2.78h-0.384V2.284z"/>
	<path class="st0" d="M107.055,3.874c-0.021-0.227-0.08-0.427-0.178-0.601c-0.098-0.173-0.225-0.316-0.38-0.43
		s-0.336-0.2-0.541-0.26c-0.206-0.061-0.427-0.09-0.663-0.09c-0.324,0-0.611,0.064-0.86,0.194c-0.25,0.13-0.46,0.304-0.628,0.521
		c-0.169,0.217-0.297,0.463-0.385,0.74c-0.088,0.276-0.132,0.562-0.132,0.854c0,0.347,0.041,0.667,0.121,0.96
		c0.081,0.294,0.206,0.549,0.375,0.766c0.169,0.216,0.378,0.385,0.628,0.505c0.249,0.12,0.543,0.18,0.881,0.18
		c0.243,0,0.467-0.04,0.673-0.12s0.388-0.189,0.547-0.33c0.158-0.14,0.288-0.309,0.39-0.505s0.169-0.411,0.202-0.645h0.385
		c-0.04,0.307-0.125,0.579-0.253,0.819s-0.29,0.442-0.485,0.605c-0.196,0.163-0.419,0.288-0.669,0.375
		c-0.249,0.086-0.513,0.13-0.789,0.13c-0.426,0-0.788-0.075-1.089-0.226c-0.3-0.149-0.547-0.352-0.739-0.604
		c-0.191-0.253-0.334-0.545-0.425-0.875s-0.137-0.675-0.137-1.035s0.053-0.7,0.157-1.02c0.104-0.32,0.258-0.601,0.46-0.841
		c0.203-0.239,0.452-0.43,0.75-0.569c0.297-0.141,0.638-0.21,1.022-0.21c0.283,0,0.548,0.035,0.795,0.104
		c0.246,0.07,0.465,0.175,0.657,0.315c0.192,0.14,0.35,0.318,0.471,0.535c0.122,0.217,0.196,0.468,0.224,0.755H107.055z"/>
	<path class="st0" d="M108.958,4.904v0.06c0,0.3,0.04,0.587,0.121,0.86c0.082,0.273,0.201,0.513,0.36,0.72s0.359,0.37,0.6,0.49
		s0.519,0.18,0.837,0.18c0.521,0,0.935-0.135,1.238-0.405c0.305-0.27,0.515-0.645,0.63-1.125h0.385
		c-0.115,0.601-0.363,1.061-0.744,1.38c-0.382,0.32-0.886,0.48-1.514,0.48c-0.385,0-0.721-0.068-1.007-0.205
		c-0.287-0.137-0.527-0.323-0.72-0.56c-0.191-0.237-0.335-0.517-0.43-0.841c-0.095-0.323-0.142-0.671-0.142-1.045
		c0-0.359,0.049-0.705,0.146-1.035c0.098-0.329,0.244-0.619,0.44-0.869c0.195-0.25,0.44-0.45,0.734-0.601
		c0.293-0.149,0.639-0.225,1.037-0.225c0.364,0,0.687,0.066,0.967,0.2c0.28,0.133,0.515,0.314,0.704,0.545
		c0.188,0.229,0.332,0.496,0.43,0.8c0.099,0.304,0.147,0.628,0.147,0.975c0,0.033-0.002,0.072-0.005,0.115
		c-0.004,0.043-0.006,0.078-0.006,0.105H108.958z M112.784,4.574c-0.014-0.28-0.061-0.545-0.142-0.795s-0.201-0.471-0.36-0.66
		c-0.159-0.19-0.352-0.342-0.579-0.455c-0.227-0.113-0.485-0.17-0.776-0.17c-0.312,0-0.585,0.059-0.822,0.175
		c-0.236,0.116-0.437,0.27-0.599,0.46c-0.162,0.189-0.288,0.412-0.376,0.665s-0.142,0.514-0.162,0.78H112.784z"/>
</g>
</svg>